<?xml version="1.0" standalone="no"?>
<!DOCTYPE svg PUBLIC "-//W3C//DTD SVG 20010904//EN"
 "http://www.w3.org/TR/2001/REC-SVG-20010904/DTD/svg10.dtd">
<svg version="1.0" xmlns="http://www.w3.org/2000/svg"
 width="1080.000000pt" height="1080.000000pt" viewBox="0 0 1080.000000 1080.000000"
 preserveAspectRatio="xMidYMid meet">
<metadata>
Created by potrace 1.16, written by Peter Selinger 2001-2019
</metadata>
<g transform="translate(0.000000,1080.000000) scale(0.100000,-0.100000)"
fill="#000000" stroke="none">
<path d="M2250 5850 c-36 -4 -162 -11 -280 -16 -118 -5 -192 -10 -165 -12 28
-2 54 -7 60 -13 5 -6 -37 -7 -113 -2 -113 6 -124 5 -137 -13 -23 -31 -17 -63
20 -108 43 -52 83 -66 194 -66 l82 0 -7 -272 c-7 -302 -3 -335 51 -360 37 -17
56 -2 77 58 l16 49 1 -40 c1 -29 4 -36 11 -25 5 8 6 132 3 307 l-6 292 24 5
c13 3 64 12 113 21 94 15 126 33 126 70 0 13 7 28 15 35 17 14 20 46 5 55 -6
4 -8 15 -5 26 4 12 2 18 -7 17 -7 0 -42 -4 -78 -8z m-475 -191 c33 -6 28 -7
-27 -5 -41 1 -73 7 -80 15 -14 14 -16 14 107 -10z"/>
<path d="M6440 5840 c-24 -24 -25 -48 -5 -77 13 -18 13 -26 4 -41 -9 -15 -10
-33 -1 -77 13 -63 10 -75 -18 -75 -10 0 -22 -9 -25 -20 -7 -23 2 -60 15 -60 5
0 22 -12 39 -27 26 -25 32 -41 50 -143 12 -63 25 -155 30 -203 7 -71 13 -93
32 -113 28 -30 43 -30 70 -3 21 21 22 27 15 168 -4 80 -10 172 -13 204 l-6 57
42 0 c23 0 51 -5 62 -10 23 -13 67 -99 144 -288 l59 -143 51 3 50 3 -1 55 c-2
65 -35 153 -105 274 -27 48 -49 89 -49 92 0 3 44 3 98 -1 115 -8 132 0 132 66
0 40 -1 42 -77 110 -91 82 -295 199 -422 243 -91 32 -144 33 -171 6z m227
-165 c71 -27 223 -112 223 -124 0 -15 -122 9 -150 29 -30 21 -75 27 -85 10
-14 -23 -35 -8 -46 34 -6 25 -17 47 -25 50 -19 7 -18 26 1 26 8 0 45 -11 82
-25z"/>
<path d="M4735 5838 c-42 -23 -62 -48 -57 -73 6 -33 19 -42 68 -47 43 -3 134
34 142 59 2 7 -10 26 -26 43 -24 23 -39 30 -69 30 -21 0 -47 -6 -58 -12z"/>
<path d="M7685 5839 c-16 -5 -86 -16 -155 -24 -341 -42 -305 -29 -316 -113 -6
-46 -4 -50 26 -76 18 -14 40 -24 49 -22 47 14 245 56 252 54 4 -2 -28 -46 -72
-98 -178 -209 -324 -420 -315 -455 3 -11 0 -35 -6 -53 -11 -29 -10 -35 10 -54
l21 -22 112 17 c121 19 160 16 60 -4 -34 -6 -60 -13 -58 -16 4 -3 218 10 529
31 61 4 71 8 103 40 39 40 39 39 24 69 -7 12 9 1 35 -25 26 -26 73 -60 104
-75 49 -24 69 -28 137 -27 199 1 325 144 325 369 0 52 -5 78 -20 102 -36 60
-93 68 -126 18 -15 -22 -15 -33 -4 -85 22 -105 -8 -211 -73 -251 -109 -67
-212 -40 -268 71 -50 99 -48 188 10 309 26 57 129 171 153 171 11 0 14 -16 14
-70 -1 -70 -11 -94 -19 -42 -2 15 -2 -31 0 -103 5 -145 15 -188 46 -210 28
-20 67 -20 67 0 0 9 -9 15 -25 15 -18 0 -31 10 -45 33 -30 48 -24 53 14 13 18
-20 38 -36 45 -36 8 0 11 66 11 231 -1 257 -4 285 -33 300 -60 33 -252 -96
-344 -232 -80 -116 -92 -325 -26 -426 l18 -26 -28 18 c-25 16 -42 17 -165 11
-75 -3 -190 -11 -255 -17 -65 -6 -120 -9 -122 -7 -5 5 195 228 324 361 57 59
101 110 97 115 -10 9 -220 -208 -348 -362 -94 -112 -126 -145 -117 -118 7 20
366 436 468 542 55 58 101 107 101 110 0 42 -136 73 -215 49z m-146 -143 c-7
-7 -231 -78 -234 -74 -2 2 3 11 10 21 8 12 44 24 106 37 98 19 125 23 118 16z"/>
<path d="M9234 5834 c-18 -9 -43 -27 -55 -41 -13 -15 -18 -23 -11 -19 8 5 12
0 12 -12 0 -28 19 -40 70 -43 52 -4 140 31 140 55 0 28 -13 47 -41 61 -36 19
-76 19 -115 -1z"/>
<path d="M2476 5818 c-11 -18 -13 -39 -6 -103 12 -107 12 -232 1 -240 -5 -3
-12 25 -16 62 -10 104 -13 106 -14 11 -1 -69 -4 -88 -15 -88 -16 0 -66 -56
-66 -74 0 -24 27 -49 56 -50 l29 -1 6 -142 c5 -134 7 -144 33 -177 28 -38 50
-44 78 -22 30 22 39 67 45 219 l6 147 92 0 92 0 6 -192 c6 -160 9 -194 24
-210 22 -25 51 -19 76 14 20 26 26 70 43 290 5 63 9 77 24 81 29 8 61 67 58
107 -2 28 -9 38 -34 50 l-31 15 -7 124 c-4 77 -13 135 -22 152 -16 33 -55 46
-93 33 -44 -16 -51 -47 -43 -178 4 -65 5 -119 1 -121 -9 -6 -181 -26 -185 -22
-2 2 -9 64 -14 137 -10 129 -11 133 -42 166 -38 40 -62 43 -82 12z m289 -429
c-57 -11 -155 -11 -155 1 0 6 38 10 98 9 78 -1 89 -3 57 -10z"/>
<path d="M8814 5820 c-22 -9 -84 -75 -84 -90 0 -6 -5 -9 -12 -7 -15 3 -52 -62
-77 -139 -64 -195 -44 -429 46 -534 20 -23 52 -49 70 -56 38 -16 120 -18 157
-4 32 12 100 79 120 119 48 93 63 313 31 466 -18 88 -67 205 -85 205 -7 0 -21
11 -32 25 -16 21 -28 25 -66 24 -26 0 -56 -4 -68 -9z m85 -172 c46 -141 56
-358 21 -470 -35 -113 -89 -133 -160 -60 l-35 37 33 3 c23 2 32 8 28 17 -17
44 -27 220 -17 293 16 124 66 242 102 242 4 0 17 -28 28 -62z"/>
<path d="M8811 5574 c0 -11 3 -14 6 -6 3 7 2 16 -1 19 -3 4 -6 -2 -5 -13z"/>
<path d="M8802 5515 c0 -16 2 -22 5 -12 2 9 2 23 0 30 -3 6 -5 -1 -5 -18z"/>
<path d="M8793 5390 c0 -41 2 -58 4 -37 2 20 2 54 0 75 -2 20 -4 3 -4 -38z"/>
<path d="M8802 5260 c0 -14 2 -19 5 -12 2 6 2 18 0 25 -3 6 -5 1 -5 -13z"/>
<path d="M3963 5812 c-22 -14 -33 -63 -33 -150 0 -60 -3 -82 -10 -72 -5 8 -10
48 -10 88 0 52 -3 71 -11 66 -9 -5 -10 -81 -6 -283 6 -285 18 -420 42 -457 21
-32 66 -38 89 -11 17 21 18 35 12 222 -3 124 -2 194 3 185 5 -9 30 -92 56
-185 55 -205 62 -223 86 -230 25 -8 38 1 55 40 19 47 57 224 55 260 -2 34 65
285 79 299 7 7 10 5 11 -4 2 -22 4 -33 11 -50 6 -13 47 -203 63 -285 3 -17 9
-75 14 -130 8 -92 10 -100 37 -122 38 -30 77 -30 102 2 35 44 35 83 -2 272
-19 98 -44 230 -56 293 -23 122 -47 190 -82 227 -17 19 -32 23 -79 23 -65 0
-74 -7 -83 -70 -13 -85 -107 -495 -115 -503 -5 -5 -11 -1 -15 9 -9 31 -45 218
-71 372 -14 79 -30 152 -35 162 -19 35 -76 52 -107 32z m124 -213 c25 -140 27
-167 14 -153 -12 12 -71 266 -64 277 15 24 30 -12 50 -124z"/>
<path d="M5009 5798 c-7 -13 -16 -26 -22 -29 -21 -14 2 -759 25 -786 17 -21
57 -15 95 14 l35 27 -7 258 c-8 264 -5 288 29 236 70 -110 234 -424 240 -460
9 -56 40 -90 75 -81 47 11 53 21 47 87 -23 245 -30 308 -51 441 -13 83 -33
183 -44 224 -25 95 -45 110 -95 70 -32 -26 -33 -42 -1 -189 13 -63 27 -147 30
-185 l6 -70 -31 60 c-156 296 -235 405 -295 405 -15 0 -29 -9 -36 -22z m120
-710 c1 -31 -3 -60 -9 -63 -6 -4 -10 24 -9 77 1 94 17 82 18 -14z"/>
<path d="M9506 5788 l-29 -33 12 -380 c11 -330 14 -382 29 -392 26 -21 66 -15
99 16 l31 28 -5 264 c-4 191 -2 261 5 254 25 -24 252 -440 258 -473 17 -94 60
-122 114 -76 14 12 14 30 3 166 -26 315 -83 618 -119 645 -26 19 -37 16 -69
-17 l-28 -30 21 -97 c27 -120 52 -268 51 -297 0 -13 -10 -1 -26 34 -65 144
-205 366 -252 399 -40 29 -62 26 -95 -11z m126 -670 c6 -76 -2 -120 -13 -73
-10 45 -10 135 0 135 5 0 11 -28 13 -62z"/>
<path d="M6015 5757 c-258 -62 -381 -104 -405 -137 -21 -30 -27 -79 -11 -95 6
-6 19 -113 31 -240 25 -270 25 -269 49 -292 10 -10 21 -26 24 -35 4 -13 16
-18 39 -17 18 1 25 3 16 6 -10 2 -18 8 -18 12 0 8 132 53 138 46 2 -2 -13 -13
-35 -24 -57 -30 -37 -25 55 14 95 40 279 98 367 116 38 8 66 20 77 33 37 44 9
165 -47 202 -26 17 -29 17 -98 -5 -40 -13 -148 -52 -240 -88 -93 -36 -170 -63
-171 -61 -2 1 -6 23 -9 47 l-5 43 72 34 c98 45 209 80 314 100 103 19 120 27
128 58 8 35 -42 103 -83 112 -43 8 -212 -36 -332 -87 -51 -22 -100 -38 -108
-35 -9 4 -13 17 -11 38 l3 33 160 52 c88 29 199 64 248 78 87 26 87 26 87 59
0 35 -21 60 -55 67 -11 2 -92 -13 -180 -34z m10 -346 c-13 -12 -207 -92 -212
-87 -15 15 23 37 110 63 119 37 114 36 102 24z"/>
<path d="M3420 5783 c-44 -8 -204 -55 -220 -65 -10 -6 -7 -7 10 -2 14 4 84 22
155 40 111 28 140 42 55 27z"/>
<path d="M3470 5753 c-80 -19 -197 -51 -260 -71 -107 -35 -116 -39 -134 -73
-19 -35 -19 -39 -3 -90 9 -30 26 -155 38 -279 21 -221 22 -225 52 -262 22 -27
38 -38 56 -37 17 1 20 3 9 6 -10 2 -18 8 -18 12 0 8 132 53 138 46 2 -2 -13
-13 -35 -24 -57 -30 -37 -25 55 14 102 43 276 98 365 115 84 17 102 39 94 111
-7 59 -29 104 -63 126 -24 16 -29 15 -97 -6 -40 -13 -148 -52 -240 -88 -93
-36 -170 -63 -171 -61 -2 1 -6 22 -10 45 l-6 43 57 29 c81 40 225 87 330 107
48 9 96 20 105 25 32 17 32 54 1 96 -35 48 -42 53 -74 53 -47 0 -221 -50 -318
-91 -51 -22 -100 -38 -108 -35 -9 4 -13 17 -11 38 l3 33 160 52 c88 29 199 64
248 78 87 26 87 26 87 59 0 42 -27 66 -71 65 -19 -1 -99 -17 -179 -36z m25
-342 c-14 -12 -206 -93 -211 -88 -16 16 21 37 109 64 119 37 114 36 102 24z"/>
<path d="M5950 5783 c-44 -8 -204 -55 -220 -65 -10 -6 -7 -7 10 -2 14 4 84 22
155 40 111 28 140 42 55 27z"/>
<path d="M5453 5745 c3 -22 15 -96 27 -165 12 -69 30 -195 40 -280 10 -85 18
-132 19 -105 2 121 -59 559 -81 580 -7 7 -9 -2 -5 -30z"/>
<path d="M9958 5774 c-3 -5 5 -67 19 -139 13 -71 32 -193 42 -270 20 -150 28
-118 11 43 -13 121 -50 342 -60 361 -4 7 -10 10 -12 5z"/>
<path d="M9151 5744 c0 -11 3 -14 6 -6 3 7 2 16 -1 19 -3 4 -6 -2 -5 -13z"/>
<path d="M2433 5685 c0 -22 2 -30 4 -17 2 12 2 30 0 40 -3 9 -5 -1 -4 -23z"/>
<path d="M4729 5663 c-57 -35 -64 -62 -62 -248 1 -153 15 -322 29 -358 7 -19
57 -55 88 -63 20 -5 31 0 52 23 14 15 33 27 41 25 10 -2 13 2 9 15 -3 10 -10
74 -16 143 -11 120 -19 160 -21 109 -1 -21 -2 -21 -9 6 -4 17 -8 99 -9 184 -1
134 -3 156 -18 167 -24 18 -52 17 -84 -3z m-7 -232 c-3 -109 -7 -149 -14 -136
-17 29 0 315 17 293 1 -2 0 -72 -3 -157z"/>
<path d="M9232 5660 c-18 -11 -40 -36 -48 -55 -28 -68 -11 -502 22 -553 23
-35 75 -63 103 -57 13 4 33 17 43 31 11 13 24 21 30 18 7 -5 8 15 3 62 -4 38
-11 116 -15 174 -4 64 -8 85 -9 55 -2 -38 -4 -45 -11 -30 -5 11 -9 92 -9 181
-1 143 -3 163 -19 177 -24 22 -50 21 -90 -3z m0 -222 c-2 -87 -7 -158 -11
-158 -14 0 -20 113 -11 200 7 72 19 129 24 118 0 -2 0 -74 -2 -160z"/>
<path d="M9463 5560 c0 -30 2 -43 4 -27 2 15 2 39 0 55 -2 15 -4 2 -4 -28z"/>
<path d="M4853 5400 c0 -30 2 -43 4 -27 2 15 2 39 0 55 -2 15 -4 2 -4 -28z"/>
<path d="M9472 5245 c0 -16 2 -22 5 -12 2 9 2 23 0 30 -3 6 -5 -1 -5 -18z"/>
<path d="M6673 5185 c0 -33 2 -45 4 -27 2 18 2 45 0 60 -2 15 -4 0 -4 -33z"/>
<path d="M10043 5160 c0 -25 2 -35 4 -22 2 12 2 32 0 45 -2 12 -4 2 -4 -23z"/>
</g>
</svg>
